<?xml version="1.0" ?><!DOCTYPE svg  PUBLIC '-//W3C//DTD SVG 1.1//EN'  'http://www.w3.org/Graphics/SVG/1.1/DTD/svg11.dtd'><svg enable-background="new 0 0 48 48" height="48px" id="Layer_1" version="1.1" viewBox="0 0 48 48" width="48px" xml:space="preserve" xmlns="http://www.w3.org/2000/svg" xmlns:xlink="http://www.w3.org/1999/xlink"><path d="M48,34c0,1.104-0.895,2-2,2H2c-1.104,0-2-0.896-2-2l0,0c0-1.104,0.896-2,2-2h44.001C47.104,32,48,32.896,48,34L48,34z"/><path d="M48,14c0,1.104-0.896,2-2,2H2c-1.104,0-2-0.896-2-2l0,0c0-1.104,0.896-2,2-2h44C47.104,12,48,12.896,48,14L48,14z"/></svg>